<?xml version="1.0" encoding="UTF-8"?>
<!-- Generator: Adobe Illustrator 19.1.0, SVG Export Plug-In . SVG Version: 6.00 Build 0)  -->
<svg xmlns="http://www.w3.org/2000/svg" xmlns:xlink="http://www.w3.org/1999/xlink" xmlns:dc="http://purl.org/dc/elements/1.1/" xmlns:cc="http://creativecommons.org/ns#" xmlns:rdf="http://www.w3.org/1999/02/22-rdf-syntax-ns#" version="1.1" id="DESIGNS" x="0px" y="0px" width="32px" height="32px" viewBox="0 0 32 32" style="enable-background:new 0 0 32 32;" xml:space="preserve">
<title property="dc:title">to discard</title><desc property="dc:description">An icon for "discard" from the Pictogram series on to [icon]. Downloaded from http://www.toicon.com/icons/pictogram_discard by 24.16.215.234 on 2020-11-18. Licensed CC-BY, see http://toicon.com/license/ for details.</desc>
<g>
	<path class="pictogram_zes" d="M32,29c0,1.65-1.35,3-3,3H3c-1.65,0-3-1.35-3-3V3c0-1.65,1.35-3,3-3h26c1.65,0,3,1.35,3,3V29z" style="fill: #0C6667;"/>
	<polygon class="pictogram_twee" points="18,6 18,4 14,4 14,6 6,6 6,10 8,10 24,10 26,10 26,6  " style="fill: #F8AD89;"/>
	<path class="pictogram_een" d="M8,25c0,1.65,1.35,3,3,3h10c1.65,0,3-1.35,3-3V10H8V25z M11.403,17.404   c0.586-0.586,1.535-0.586,2.121,0L14,17.879v-4.386c0-1.105,0.896-2,2-2s2,0.895,2,2v4.386l0.476-0.475   c0.586-0.586,1.535-0.586,2.121,0s0.586,1.536,0,2.121L16,24.121l-4.597-4.596C10.817,18.939,10.817,17.99,11.403,17.404z" style="fill: #F4D6B0;"/>
	<path class="pictogram_vier" d="M16,24.121l4.597-4.596c0.586-0.585,0.586-1.535,0-2.121s-1.535-0.586-2.121,0L18,17.879v-4.386   c0-1.105-0.896-2-2-2s-2,0.895-2,2v4.386l-0.476-0.475c-0.586-0.586-1.535-0.586-2.121,0s-0.586,1.536,0,2.121L16,24.121z" style="fill: #E54D2E;"/>
</g>
<metadata><work rdf:about=""><format>image/svg+xml</format><type rdf:resource="http://purl.org/dc/dcmitype/StillImage"/><license rdf:resource="http://creativecommons.org/licenses/by/4.0/"/><attributionname>Jo Szczepanska</attributionname><attributionurl>http://www.toicon.com/icons/pictogram_discard</attributionurl></work></metadata></svg>
